<?xml version="1.0" encoding="UTF-8" standalone="no" ?>
<!DOCTYPE svg PUBLIC "-//W3C//DTD SVG 1.1//EN" "http://www.w3.org/Graphics/SVG/1.1/DTD/svg11.dtd">
<svg xmlns="http://www.w3.org/2000/svg" xmlns:xlink="http://www.w3.org/1999/xlink" version="1.1" width="1892" height="1877" viewBox="0 0 1892 1877" xml:space="preserve">
<desc>Created with Fabric.js 4.2.0</desc>
<defs>
</defs>
<rect x="0" y="0" width="100%" height="100%" fill="transparent"></rect>
<g transform="matrix(1 0 0 1 946 938.5)" id="8c918d63-4cbc-4b48-b6fc-d9a5857c9a00"  >
<rect style="stroke: none; stroke-width: 1; stroke-dasharray: none; stroke-linecap: butt; stroke-dashoffset: 0; stroke-linejoin: miter; stroke-miterlimit: 4; fill: rgb(0,0,0); fill-rule: nonzero; opacity: 1;" vector-effect="non-scaling-stroke"  x="-946" y="-938.5" rx="0" ry="0" width="1892" height="1877" />
</g>
<g transform="matrix(Infinity NaN NaN Infinity 0 0)" id="2595e895-01a8-4353-9dd5-e8dde6ffa248"  >
</g>
<g transform="matrix(0 -0.14 0.14 0 943.52 968.07)" id="e2a68b7b-b3e3-424f-b872-2f6530fe3337"  >
<path style="stroke: rgb(255,255,255); stroke-width: 0; stroke-dasharray: none; stroke-linecap: butt; stroke-dashoffset: 0; stroke-linejoin: miter; stroke-miterlimit: 4; fill: rgb(255,255,255); fill-rule: nonzero; opacity: 1;" vector-effect="non-scaling-stroke"  transform=" translate(-7095, -7040)" d="M 0 7040 L 0 0 L 7095 0 L 14190 0 L 14190 7040 L 14190 14080 L 7095 14080 L 0 14080 L 0 7040 z M 10973 9358 L 9600 7985 L 9637 7940 C 9738 7814 9958 7512 10080 7330 C 10769 6303 11247 5174 11505 3965 C 11630 3382 11710 2666 11710 2139 L 11710 1970 L 10637 1970 L 9563 1970 L 9557 2218 C 9523 3582 9081 4963 8308 6119 C 8220 6250 8097 6424 8078 6445 C 8073 6451 7710 6095 7122 5507 L 6175 4560 L 5415 5320 L 4655 6080 L 5604 7029 L 6552 7977 L 6418 8072 C 5188 8947 3775 9424 2287 9467 L 2060 9473 L 2060 10548 L 2060 11623 L 2313 11617 C 3257 11592 4159 11436 5055 11143 C 6087 10805 7097 10270 7945 9612 C 8017 9556 8077 9510 8080 9510 C 8083 9510 8702 10127 9455 10880 L 10825 12250 L 11585 11490 L 12345 10730 L 10973 9358 z M 3730 4445 C 3866 4424 3960 4396 4079 4339 C 4372 4200 4585 3973 4704 3673 C 4809 3409 4816 3106 4725 2833 C 4657 2630 4562 2481 4404 2330 C 4169 2105 3881 1990 3555 1990 C 3218 1990 2918 2114 2681 2351 C 2265 2767 2200 3417 2525 3906 C 2789 4302 3267 4516 3730 4445 z" stroke-linecap="round" />
</g>
</svg>